<svg width="189" height="40" viewBox="0 0 189 40" fill="none" xmlns="http://www.w3.org/2000/svg">
<g clip-path="url(#clip0)">
<path fill-rule="evenodd" clip-rule="evenodd" d="M52.3427 13.1725H61.0823C60.9661 14.161 60.6579 15.0394 60.1466 15.7972C59.6359 16.555 58.9479 17.1474 58.0885 17.5737C57.2239 18.0053 56.2124 18.2215 55.0443 18.2313C54.5535 18.2313 54.0628 18.201 53.5726 18.1358C53.0819 18.0758 52.6117 17.9902 52.1668 17.8847C51.7218 17.774 51.3273 17.6488 50.9787 17.5085L50.1592 21.0313C50.5185 21.1967 50.9734 21.3476 51.5199 21.4932C52.0711 21.6388 52.6735 21.7587 53.3409 21.8497C54.0083 21.9452 54.6963 21.99 55.4095 21.9953C56.6182 21.9953 57.7565 21.8497 58.8283 21.5637C59.9009 21.2777 60.8817 20.8514 61.767 20.284C62.6522 19.7219 63.4159 19.0195 64.0628 18.176C64.7049 17.3378 65.2057 16.3645 65.555 15.2601C65.909 14.1511 66.0863 12.9116 66.0909 11.5462C66.0909 10.4122 65.9694 9.32818 65.717 8.28966C65.464 7.25049 65.0749 6.29236 64.5535 5.41397C64.0329 4.53558 63.3655 3.7679 62.5612 3.11553C61.7524 2.46317 60.7914 1.95116 59.6784 1.59005C58.566 1.22894 57.2963 1.04311 55.8651 1.03784C55.122 1.04311 54.4134 1.09847 53.7407 1.21378C53.0679 1.3291 52.4463 1.46946 51.8799 1.6454C51.3134 1.81607 50.8226 1.99662 50.4029 2.18245L51.3134 5.58464C51.662 5.43902 52.0519 5.30327 52.4915 5.17807C52.9364 5.05287 53.4066 4.94743 53.918 4.86704C54.4234 4.78665 54.9546 4.74118 55.5012 4.74118C56.3506 4.74645 57.1096 4.87165 57.7717 5.11744C58.4345 5.36323 59.001 5.70985 59.4712 6.14608C59.9414 6.58758 60.3106 7.09959 60.5889 7.68672C60.8618 8.27385 61.0391 8.90579 61.1148 9.58847H52.3427V13.1725ZM68.4286 1.36996V21.6639H72.9803V13.1725H73.8602C74.6797 13.1778 75.3571 13.3584 75.8831 13.7096C76.4037 14.0608 76.8341 14.5379 77.1575 15.1448C77.4862 15.7471 77.7645 16.4344 77.9869 17.2073C78.2194 17.9651 78.4571 18.7229 78.6949 19.4807C78.9326 20.2385 79.2261 20.966 79.5648 21.6639H84.5416C84.0608 20.6504 83.6364 19.6066 83.2672 18.5272C82.8933 17.4531 82.5287 16.3691 82.1747 15.2805C81.8965 14.4628 81.5631 13.73 81.1733 13.0724C80.7788 12.4147 80.288 11.8625 79.6963 11.4065C79.1046 10.9499 78.3761 10.6184 77.5015 10.4029L84.6326 1.36996H79.0189L73.4053 9.83096H72.9803V1.36996H68.4286ZM86.0312 1.36996V21.6639H90.6433V5.13326H98.3814V1.36996H86.0312ZM114.133 18.9232C113.775 19.0939 113.365 19.2448 112.899 19.37C112.434 19.4952 111.938 19.5908 111.412 19.6613C110.881 19.7318 110.345 19.7667 109.794 19.7667C108.14 19.7568 106.729 19.4254 105.566 18.7631C104.403 18.1009 103.512 17.1619 102.895 15.9428C102.278 14.7283 101.97 13.2832 101.965 11.6069C101.97 10.2718 102.162 9.08766 102.537 8.04914C102.916 7.01524 103.457 6.13751 104.155 5.42452C104.858 4.70691 105.698 4.16525 106.673 3.7936C107.654 3.42195 108.742 3.23678 109.945 3.23678C110.8 3.24205 111.574 3.32179 112.267 3.4773C112.96 3.63281 113.551 3.8338 114.042 4.07959L114.71 1.94193C114.477 1.81673 114.138 1.68626 113.698 1.54524C113.258 1.40949 112.717 1.28956 112.08 1.19401C111.438 1.09385 110.694 1.04377 109.854 1.0385C108.261 1.04377 106.815 1.29945 105.51 1.80619C104.205 2.31292 103.082 3.0358 102.136 3.97415C101.191 4.91251 100.462 6.03669 99.9514 7.33615C99.4353 8.64089 99.1777 10.0959 99.1724 11.6971C99.1823 13.3682 99.4353 14.8436 99.9361 16.1286C100.437 17.4083 101.139 18.4824 102.05 19.3503C102.955 20.2234 104.017 20.881 105.241 21.3271C106.46 21.7686 107.795 21.9946 109.247 21.9946C110.082 21.9894 110.845 21.9446 111.543 21.8543C112.241 21.7587 112.857 21.6388 113.383 21.4932C113.909 21.3476 114.329 21.1967 114.648 21.0313L114.133 18.9232ZM128.907 14.8588C128.937 14.7079 128.963 14.5326 128.978 14.3316C128.993 14.1307 128.998 13.8947 128.998 13.6239C129.004 13.0816 128.948 12.4997 128.832 11.8823C128.715 11.2649 128.523 10.658 128.25 10.0609C127.982 9.45865 127.612 8.91699 127.152 8.42475C126.687 7.93317 126.105 7.53647 125.412 7.2406C124.72 6.94934 123.89 6.79383 122.929 6.78856C121.857 6.79383 120.896 6.99415 120.046 7.39546C119.197 7.79215 118.478 8.3437 117.882 9.05142C117.285 9.76375 116.83 10.5921 116.517 11.5403C116.203 12.4833 116.046 13.5126 116.041 14.6163C116.046 15.7207 116.208 16.7243 116.532 17.6225C116.861 18.5259 117.336 19.3035 117.958 19.9512C118.581 20.6036 119.339 21.1057 120.229 21.4569C121.119 21.8134 122.13 21.9887 123.263 21.994C124.042 21.9887 124.745 21.9386 125.367 21.8431C125.989 21.7475 126.535 21.6322 127.006 21.4919C127.476 21.3462 127.866 21.2059 128.179 21.0602L127.693 19.1638C127.375 19.3041 127.021 19.4346 126.632 19.5453C126.247 19.6606 125.807 19.7509 125.317 19.8161C124.826 19.8814 124.259 19.917 123.627 19.917C122.95 19.917 122.307 19.8214 121.711 19.631C121.109 19.4399 120.583 19.1394 120.117 18.7328C119.657 18.3262 119.293 17.7991 119.025 17.1619C118.752 16.5194 118.611 15.7517 118.59 14.8588H128.907ZM118.62 12.9617C118.67 12.4951 118.787 12.0134 118.964 11.5166C119.146 11.025 119.399 10.5631 119.722 10.1367C120.051 9.7051 120.461 9.35915 120.956 9.0982C121.447 8.83198 122.033 8.69163 122.716 8.68701C123.313 8.69229 123.829 8.78717 124.259 8.973C124.688 9.15883 125.043 9.40462 125.326 9.71565C125.609 10.0221 125.832 10.368 125.993 10.7397C126.155 11.1159 126.272 11.4975 126.332 11.8836C126.398 12.2651 126.428 12.6263 126.418 12.9623H118.62V12.9617ZM131.512 27.6254H134.152V19.7061H134.213C134.511 20.1878 134.886 20.5996 135.346 20.9403C135.801 21.2817 136.317 21.5426 136.893 21.7232C137.47 21.9037 138.082 21.994 138.734 21.994C139.609 21.994 140.443 21.8332 141.242 21.507C142.041 21.1808 142.755 20.6939 143.387 20.0415C144.014 19.3944 144.514 18.5766 144.879 17.5981C145.243 16.6195 145.43 15.4749 145.44 14.1656C145.435 13.0618 145.278 12.0582 144.965 11.1594C144.657 10.256 144.222 9.47842 143.66 8.82605C143.093 8.17896 142.436 7.67683 141.677 7.32034C140.919 6.96911 140.09 6.79383 139.189 6.78856C137.99 6.79383 136.954 7.03962 136.078 7.52132C135.203 8.00829 134.5 8.69558 133.969 9.58913H133.909L133.757 7.09036H131.39C131.42 7.77765 131.451 8.51041 131.476 9.28798C131.497 10.0656 131.511 10.9189 131.511 11.8474V27.6254H131.512ZM134.152 13.2028C134.152 13.0374 134.173 12.8615 134.208 12.6757C134.243 12.4951 134.289 12.3192 134.334 12.1485C134.501 11.481 134.789 10.909 135.194 10.4227C135.594 9.93574 136.069 9.56474 136.621 9.29853C137.172 9.03231 137.759 8.90183 138.371 8.89722C139.079 8.90249 139.701 9.04812 140.248 9.33411C140.789 9.61482 141.244 10.0115 141.613 10.5084C141.987 11.0052 142.265 11.5772 142.458 12.2243C142.645 12.872 142.741 13.5593 142.741 14.2868C142.741 15.4057 142.564 16.3896 142.209 17.2324C141.861 18.0758 141.355 18.7275 140.693 19.2C140.03 19.6718 139.226 19.9123 138.28 19.9176C137.638 19.9123 137.046 19.7819 136.499 19.5209C135.953 19.26 135.488 18.8989 135.103 18.4369C134.719 17.9704 134.441 17.4333 134.274 16.8159C134.228 16.6505 134.198 16.4746 134.178 16.294C134.162 16.1135 134.152 15.9276 134.152 15.7319V13.2028ZM147.895 21.6639C148.163 21.6836 148.517 21.7093 148.957 21.739C149.401 21.764 149.888 21.7891 150.424 21.8095C150.954 21.8299 151.501 21.8444 152.052 21.8444C152.537 21.8444 153.063 21.8293 153.625 21.7891C154.192 21.7541 154.763 21.6836 155.339 21.5782C155.916 21.4728 156.472 21.3225 157.003 21.1268C157.535 20.9258 158.005 20.6701 158.425 20.3538C158.844 20.0375 159.173 19.6461 159.416 19.1849C159.659 18.7236 159.785 18.176 159.791 17.5388C159.785 16.8363 159.624 16.2393 159.3 15.7372C158.981 15.2403 158.541 14.8443 157.985 14.5478C157.424 14.2519 156.782 14.0562 156.058 13.9554V13.8954C156.619 13.7748 157.135 13.5692 157.595 13.278C158.055 12.9867 158.425 12.6157 158.698 12.1637C158.976 11.7123 159.117 11.1851 159.123 10.5828C159.117 9.94035 158.966 9.40396 158.678 8.96707C158.394 8.53084 158.01 8.17962 157.535 7.90813C157.055 7.6373 156.529 7.43631 155.952 7.29596C155.375 7.1556 154.793 7.06005 154.207 7.00997C153.621 6.95989 153.074 6.93485 152.569 6.93946C151.997 6.93946 151.42 6.95462 150.839 6.98427C150.258 7.01458 149.711 7.05478 149.2 7.10486C148.69 7.15494 148.255 7.21029 147.895 7.27026V21.6639H147.895ZM150.473 8.89722C150.671 8.87745 150.873 8.85702 151.075 8.83726C151.278 8.8221 151.495 8.80694 151.732 8.79179C151.965 8.7819 152.238 8.77663 152.537 8.77663C153.872 8.77663 154.863 8.95257 155.511 9.30314C156.163 9.65436 156.487 10.1914 156.481 10.9143C156.476 11.3512 156.36 11.7176 156.132 12.0134C155.904 12.3093 155.601 12.5505 155.217 12.7258C154.838 12.9063 154.408 13.0368 153.933 13.1172C153.462 13.1976 152.977 13.2325 152.476 13.2325H150.473V8.89722ZM150.443 14.9491H152.385C153.018 14.9438 153.619 14.9794 154.18 15.0545C154.737 15.125 155.238 15.2548 155.667 15.436C156.097 15.6219 156.436 15.8828 156.684 16.2189C156.927 16.555 157.053 16.9866 157.059 17.5085C157.053 17.9348 156.958 18.2966 156.765 18.5925C156.578 18.8883 156.32 19.1348 156.001 19.3199C155.683 19.5104 155.329 19.6613 154.934 19.7614C154.544 19.8669 154.14 19.9374 153.735 19.9822C153.326 20.0224 152.937 20.0375 152.567 20.0375C152.299 20.0375 152.046 20.0329 151.819 20.0277C151.591 20.0224 151.369 20.0125 151.151 19.9973C150.929 19.9822 150.691 19.967 150.443 19.9473V14.9491ZM162.274 7.09036V21.6632H165.369C165.885 20.8052 166.411 19.9367 166.937 19.0537C167.463 18.1707 167.979 17.3022 168.484 16.4541C168.995 15.6061 169.486 14.8028 169.951 14.0457C170.24 13.5587 170.513 13.0869 170.766 12.6302C171.019 12.1736 171.276 11.6965 171.535 11.1904C171.798 10.6883 172.091 10.1262 172.41 9.49951H172.47C172.44 10.0866 172.415 10.6237 172.389 11.1054C172.369 11.5871 172.349 12.049 172.334 12.4958C172.318 12.9426 172.308 13.4038 172.298 13.8862C172.293 14.3679 172.288 14.9049 172.288 15.4921V21.6645H174.837V7.09036H171.712L167.13 14.6176C166.882 15.0341 166.659 15.4209 166.462 15.782C166.265 16.1385 166.072 16.4845 165.896 16.8258C165.718 17.1671 165.536 17.5236 165.349 17.89C165.162 18.261 164.955 18.663 164.732 19.1045L164.641 19.0742C164.672 18.5575 164.697 18.0706 164.722 17.6086C164.742 17.1421 164.763 16.6854 164.778 16.2334C164.793 15.7767 164.803 15.3049 164.813 14.8186C164.819 14.3316 164.823 13.7999 164.823 13.2325V7.09036H162.274ZM188.397 19.1644C188.022 19.3397 187.572 19.4959 187.041 19.6362C186.515 19.7766 185.873 19.8471 185.119 19.857C184.386 19.857 183.714 19.7318 183.091 19.4807C182.474 19.2297 181.938 18.8686 181.478 18.3967C181.018 17.9249 180.664 17.353 180.406 16.6808C180.153 16.008 180.027 15.2502 180.022 14.4074C180.022 13.6496 180.133 12.9373 180.36 12.2744C180.583 11.6121 180.912 11.0296 181.351 10.5229C181.792 10.0161 182.332 9.61944 182.98 9.33345C183.622 9.04746 184.366 8.90183 185.21 8.89656C185.938 8.90183 186.555 8.97695 187.066 9.11731C187.577 9.25833 187.986 9.41384 188.305 9.58913L188.912 7.57206C188.664 7.43631 188.356 7.31111 187.982 7.19579C187.602 7.0752 187.177 6.98031 186.707 6.90453C186.237 6.82941 185.742 6.78922 185.21 6.78922C184.007 6.79449 182.925 6.98954 181.954 7.37108C180.987 7.75261 180.158 8.29428 179.471 8.99211C178.778 9.68467 178.247 10.5077 177.877 11.4513C177.513 12.395 177.326 13.4282 177.321 14.5577C177.326 15.6766 177.498 16.6907 177.842 17.5987C178.186 18.5121 178.676 19.2896 179.319 19.9473C179.956 20.6042 180.724 21.1064 181.62 21.4576C182.519 21.8141 183.521 21.9894 184.634 21.9946C185.291 21.9894 185.898 21.9393 186.45 21.849C187.001 21.7587 187.476 21.648 187.886 21.5176C188.296 21.3871 188.615 21.2665 188.852 21.1512L188.397 19.1644Z" fill="white"/>
<path fill-rule="evenodd" clip-rule="evenodd" d="M50.4608 28.6139L53.4154 32.8503L50.3174 37.2653H52.0646L53.3258 35.3174C53.4971 35.0611 53.6558 34.8107 53.8059 34.5669C53.956 34.3224 54.1001 34.072 54.2442 33.8163H54.2801C54.4328 34.076 54.5836 34.3257 54.7363 34.5728C54.8864 34.8199 55.0484 35.0677 55.2164 35.3181L56.5134 37.266H58.2965L55.2523 32.7976L58.2248 28.6152H56.4955L55.2888 30.4563C55.1354 30.6856 54.9853 30.9183 54.8412 31.1476C54.6945 31.3802 54.5497 31.6214 54.4062 31.8685H54.3697C54.2289 31.6299 54.0848 31.398 53.9407 31.1713C53.7966 30.9446 53.6372 30.7127 53.4692 30.4741L52.226 28.6152H50.4608V28.6139ZM76.0997 28.4353C75.496 28.4353 74.9349 28.5394 74.4122 28.745C73.8929 28.9506 73.4334 29.2511 73.0402 29.6445C72.6437 30.0379 72.3376 30.5176 72.1151 31.0804C71.8926 31.6464 71.7791 32.2895 71.7758 33.0104C71.7791 33.6958 71.8867 34.3125 72.0998 34.8601C72.313 35.4051 72.6072 35.8729 72.9884 36.2604C73.3663 36.6479 73.8079 36.9457 74.3126 37.1513C74.82 37.3569 75.3665 37.4584 75.9549 37.461C76.3753 37.461 76.7957 37.4044 77.2101 37.291C77.6245 37.175 78.0176 37.0024 78.3869 36.7639C78.7561 36.5286 79.0835 36.2308 79.3717 35.867C79.6573 35.5033 79.8824 35.0717 80.0445 34.5741C80.2098 34.0766 80.2935 33.508 80.2968 32.8674C80.2935 32.2091 80.1945 31.6069 79.9933 31.0652C79.7921 30.5262 79.5065 30.0583 79.1373 29.6649C78.7654 29.2715 78.3238 28.971 77.8104 28.7562C77.2977 28.5453 76.7273 28.4379 76.0997 28.4353ZM76.0632 29.6148C76.4384 29.6175 76.7685 29.686 77.054 29.8171C77.3422 29.9516 77.5886 30.1301 77.7925 30.3562C77.997 30.5828 78.1651 30.8392 78.2972 31.1245C78.4267 31.4079 78.5223 31.7057 78.5854 32.0154C78.6452 32.3225 78.6751 32.6263 78.6751 32.9215C78.6718 33.4098 78.606 33.8598 78.4739 34.2677C78.3417 34.6756 78.1584 35.0301 77.9187 35.3313C77.6816 35.6324 77.402 35.8644 77.0812 36.0311C76.7598 36.1952 76.4085 36.2782 76.0273 36.2815C75.6402 36.2782 75.2829 36.1952 74.9614 36.0285C74.6433 35.8617 74.3638 35.6291 74.13 35.3313C73.8989 35.0301 73.7189 34.6789 73.5894 34.2763C73.4632 33.871 73.3975 33.4335 73.3975 32.9564C73.3975 32.5452 73.4486 32.1433 73.5536 31.7466C73.6585 31.3532 73.8179 30.996 74.0337 30.6744C74.2495 30.3529 74.5291 30.0992 74.8651 29.9054C75.2018 29.7163 75.601 29.6181 76.0632 29.6148ZM95.3612 28.6139V32.0635C95.3646 32.7073 95.346 33.2701 95.3075 33.7584C95.2683 34.2473 95.1846 34.6578 95.0551 34.9979C94.9263 35.3346 94.7277 35.6028 94.4607 35.7991C94.3498 35.8888 94.2177 35.9632 94.0616 36.0252C93.9089 36.0845 93.7528 36.1299 93.5961 36.1563L93.7581 37.3899C94.0284 37.3899 94.2655 37.3688 94.4694 37.3273C94.6766 37.2825 94.8625 37.2232 95.0279 37.1428C95.1932 37.0624 95.346 36.9668 95.4874 36.8541C95.8626 36.6097 96.1482 36.267 96.3461 35.8262C96.544 35.3853 96.6828 34.8522 96.7545 34.2236C96.8262 33.5949 96.8595 32.874 96.8568 32.0642V29.8474H99.8472V37.2653H101.432V28.6139H95.3612ZM117.524 28.6139V30.8662C117.524 31.4738 117.482 32.0668 117.401 32.6447C117.316 33.2226 117.19 33.7794 117.02 34.3158C116.822 34.9412 116.533 35.531 116.155 36.0851L115.416 36.1207L115.488 39.9993H116.713L116.803 37.2647H122.838L122.909 39.9993H124.153L124.243 36.1029L123.342 36.0851V28.6139H117.524ZM118.911 29.8112H121.793V36.0673H117.776C117.911 35.8262 118.037 35.5725 118.151 35.3049C118.268 35.0367 118.37 34.7534 118.46 34.4588C118.613 33.9732 118.727 33.4612 118.799 32.9156C118.874 32.3706 118.91 31.8072 118.91 31.2233V29.8112H118.911ZM138.659 28.6139V37.2653H140.497C140.803 36.7559 141.115 36.2406 141.428 35.7161C141.74 35.1916 142.047 34.6763 142.346 34.1728C142.65 33.6694 142.941 33.193 143.217 32.7429C143.388 32.4543 143.55 32.1742 143.7 31.9027C143.85 31.6319 144.004 31.3486 144.157 31.0481C144.313 30.7502 144.487 30.4168 144.676 30.0438H144.712C144.694 30.3924 144.679 30.7113 144.664 30.9973C144.652 31.2833 144.64 31.5574 144.631 31.8223C144.621 32.0872 144.616 32.3614 144.61 32.6474C144.606 32.9333 144.604 33.2523 144.604 33.6002V37.2647H146.116V28.6139H144.261L141.541 33.0823C141.394 33.3294 141.262 33.5587 141.144 33.7735C141.027 33.985 140.913 34.1906 140.808 34.3929C140.703 34.5952 140.595 34.8068 140.484 35.0249C140.373 35.245 140.25 35.4835 140.118 35.7458L140.064 35.728C140.082 35.4216 140.097 35.1323 140.112 34.8582C140.124 34.5814 140.136 34.3099 140.145 34.0424C140.155 33.7709 140.161 33.4915 140.167 33.2022C140.17 32.9129 140.173 32.5973 140.173 32.2605V28.6139H138.659ZM161.217 28.6139V37.2653H162.803V33.3511H166.928V37.2653H168.513V28.6139H166.928V32.0991H162.803V28.6139H161.217ZM183.65 28.6139V37.2653H185.217V29.8652H189.001V28.6139H183.65Z" fill="white"/>
<path fill-rule="evenodd" clip-rule="evenodd" d="M21.5613 0C32.0521 0 40.5565 8.4386 40.5565 18.8481C40.5565 18.9668 40.5552 19.0847 40.5532 19.2033H42.088V21.8227H8.8717C8.86772 21.9169 8.86573 22.0111 8.86573 22.106C8.86573 25.8799 11.9491 28.9394 15.7524 28.9394C19.0736 28.9394 21.8455 26.6067 22.495 23.503H24.7337C24.8758 23.4279 25.0286 23.4134 25.1561 23.4918L25.1753 23.503H27.1085C27.064 23.8648 27.0016 24.2206 26.9239 24.5705L29.4362 26.1039C29.7085 26.2693 29.8453 26.6238 29.6925 26.9948L28.9209 28.8663C28.7681 29.2373 28.4195 29.3941 28.1087 29.3236L25.1089 28.6416C24.2848 29.8013 23.2475 30.801 22.0527 31.5838L22.6843 34.5577C22.75 34.868 22.5854 35.2107 22.2095 35.3557L20.3101 36.0884C19.9336 36.2334 19.579 36.0904 19.4169 35.8183L17.8928 33.2602C17.1988 33.3907 16.4836 33.4585 15.7518 33.4585C14.9575 33.4585 14.1825 33.3781 13.4341 33.2253L11.8064 35.7438C11.6337 36.0107 11.2744 36.1398 10.9032 35.981L9.03241 35.1804C8.66185 35.0216 8.51043 34.6723 8.58747 34.3659L9.31001 31.4883C8.13588 30.6929 7.11848 29.686 6.31359 28.5236L3.32249 29.2116C3.01103 29.2834 2.66304 29.1272 2.50897 28.7562L1.7333 26.8881C1.57923 26.5177 1.71603 26.1632 1.98699 25.9965L4.54908 24.4236C4.39235 23.675 4.31 22.9001 4.31 22.1054C4.31 22.0105 4.31133 21.9162 4.31332 21.822H0V19.2027H37.679C37.7673 16.862 37.3496 14.5201 36.3289 12.0886C36.1283 11.5502 35.3228 11.2036 34.6627 11.6003L24.3446 17.7569C24.3532 17.8221 24.3592 17.888 24.3631 17.9553H23.4268C23.3384 16.951 22.4891 16.1636 21.4544 16.1636C20.4197 16.1636 19.5703 16.9517 19.482 17.9553H18.5456H17.2938L7.30841 14.4885C6.58122 14.2328 5.864 14.7343 5.77766 15.3023C5.60168 16.211 5.49609 17.0933 5.45823 17.9546H2.98911H2.58799C3.05818 7.9602 11.3727 0 21.5613 0ZM23.802 16.4146L33.021 9.33281C33.6393 8.87417 33.6187 8.00369 33.191 7.61688C30.2338 4.71352 26.9259 3.25525 23.0887 2.77025C22.3343 2.64373 21.7705 2.79661 21.7273 3.7119L21.8462 15.2621C22.6465 15.3689 23.3444 15.7985 23.802 16.4146ZM20.358 15.4486L18.6512 4.2674C18.5377 3.5096 17.7547 3.11555 17.2088 3.30599C13.2309 4.51385 10.3692 6.71345 8.11994 9.83559C7.64976 10.4352 7.51827 11 8.30987 11.4718L18.8365 16.8555C19.152 16.2202 19.6939 15.7161 20.358 15.4486Z" fill="white"/>
</g>
<defs>
<clipPath id="clip0">
<rect width="189" height="40" fill="white"/>
</clipPath>
</defs>
</svg>
